PathFileType	4	(X/Y/Z)	C:/Users/opensim2020/Desktop/walking_exp_matlab/subject02_walking13_straight_02.trc																																																																																																																									
DataRate	CameraRate	NumFrames	NumMarkers	Units	OrigDataRate	OrigDataStartFrame	OrigNumFrames																																																																																																																					
100	100	4	41	mm	100	881	125																																																																																																																					
Frame#	Time	LFHD			RFHD			LBHD			RBHD			C7			T10			CLAV			STRN			RBAK			LSHO			LUPA			LELB			LFRM			LWRA			LWRB			LFIN			RSHO			RUPA			RELB			RFRM			RWRA			RWRB			RFIN			LASI			RASI			LPSI			RPSI			LTHI			LKNE			LTIB			LANK			LHEE			LTOE			RTHI			RKNE			RTIB			RANK			RHEE			RTOE			*39			*40		
		X1	Y1	Z1	X2	Y2	Z2	X3	Y3	Z3	X4	Y4	Z4	X5	Y5	Z5	X6	Y6	Z6	X7	Y7	Z7	X8	Y8	Z8	X9	Y9	Z9	X10	Y10	Z10	X11	Y11	Z11	X12	Y12	Z12	X13	Y13	Z13	X14	Y14	Z14	X15	Y15	Z15	X16	Y16	Z16	X17	Y17	Z17	X18	Y18	Z18	X19	Y19	Z19	X20	Y20	Z20	X21	Y21	Z21	X22	Y22	Z22	X23	Y23	Z23	X24	Y24	Z24	X25	Y25	Z25	X26	Y26	Z26	X27	Y27	Z27	X28	Y28	Z28	X29	Y29	Z29	X30	Y30	Z30	X31	Y31	Z31	X32	Y32	Z32	X33	Y33	Z33	X34	Y34	Z34	X35	Y35	Z35	X36	Y36	Z36	X37	Y37	Z37	X38	Y38	Z38	X39	Y39	Z39	X40	Y40	Z40	X41	Y41	Z41
																																																																																																																												
16	0.15	-754.41779	1717.77368	-1443.57141	-773.49738	1690.90662	-1302.90308	-889.12115	1656.52246	-1471.6073	-920.2608	1630.05078	-1333.78406	-964.51575	1512.46033	-1403.61365	-1023.68195	1236.79724	-1392.05066	-828.18127	1438.43164	-1417.83484	-781.75116	1265.73547	-1416.91614	-1027.80737	1335.83704	-1341.72961	-901.64655	1491.52234	-1580.70923	-876.62616	1319.56238	-1702.37085	-827.31427	1199.14221	-1758.51135	-744.46881	1102.08069	-1801.34204	-621.97083	1038.35242	-1803.39404	-665.26526	1013.01398	-1829.52441	-612.51459	982.21631	-1853.31787	-889.74957	1469.8656	-1220.16357	-948.10846	1289.93958	-1134.44055	-954.43982	1141.8988	-1112.16882	-933.91089	1020.42676	-1107.31409	-902.24078	892.89526	-1148.59814	-939.40619	890.47076	-1103.76611	-911.46692	823.16156	-1118.90991	-842.45459	968.6488	-1557.03076	-798.40594	952.18811	-1305.89905	-1030.28503	1025.22668	-1438.57434	-1016.71484	1019.65497	-1326.38782	-982.3194	671.91229	-1591.95178	-1057.3938	481.31711	-1554.52075	-1159.85034	314.53412	-1544.55688	-1204.04382	92.82738	-1508.75928	-1236.9856	70.73018	-1453.41077	-1057.68372	37.52966	-1543.92053	-803.12421	654.12976	-1235.41211	-727.64801	467.49353	-1302.80615	-693.55994	284.66702	-1314.40417	-623.12506	106.09428	-1363.01697	-620.97021	50.01331	-1429.07031	-466.3963	115.40731	-1331.22302	-860.06219	1787.3584	-1360.95764	-2845.22485	1034.29578	3360.39551
17	0.16	-741.1059	1715.27576	-1444.65637	-760.50946	1688.98206	-1304.55615	-875.69501	1654.08057	-1472.93713	-907.33453	1627.76392	-1335.44775	-951.47754	1510.18909	-1405.25317	-1010.65466	1234.53394	-1393.27161	-815.1178	1436.20276	-1419.33191	-768.75067	1263.38293	-1417.86243	-1014.90234	1333.66113	-1343.46619	-888.16034	1489.20972	-1582.08923	-861.81848	1318.7384	-1704.51855	-811.5603	1198.80139	-1761.16077	-725.78961	1104.28247	-1804.17676	-601.17145	1045.04016	-1806.6908	-643.78998	1017.80737	-1832.32166	-590.32434	989.48657	-1856.97278	-877.29486	1467.78333	-1221.48547	-937.33148	1288.43628	-1135.87891	-945.69476	1140.70483	-1113.83398	-927.21545	1019.07385	-1108.61255	-896.18561	890.82959	-1148.81567	-934.25861	889.10016	-1104.31897	-906.51898	821.38361	-1119.03784	-829.76172	966.76605	-1558.28931	-785.23926	949.79333	-1307.68689	-1017.37396	1022.92773	-1439.43469	-1003.20953	1017.18817	-1327.24072	-973.53912	671.12366	-1593.36902	-1050.5918	481.30588	-1555.54834	-1155.64734	316.28253	-1545.39294	-1203.11414	95.19141	-1509.48608	-1236.30896	73.83958	-1454.08875	-1057.61267	37.34431	-1544.03186	-794.18848	650.51862	-1238.09875	-715.83319	464.96371	-1306.30103	-675.93951	283.85837	-1316.46313	-599.54041	107.032	-1364.29663	-596.03534	50.70557	-1429.9502	-442.4082	120.36097	-1333.21228	-847.04974	1784.97571	-1362.58313	-2845.99683	1034.24451	3356.90771
18	0.17	-727.9201	1713.20593	-1446.06311	-747.62219	1686.80188	-1305.71545	-862.35883	1651.91248	-1474.59692	-894.22266	1625.61328	-1336.91943	-938.39258	1508.05493	-1406.71704	-997.52795	1232.36804	-1394.52319	-801.91156	1433.89587	-1420.28735	-755.66962	1261.19116	-1418.59277	-1001.78589	1331.55481	-1345.02588	-874.53687	1486.94897	-1583.1449	-847.06238	1317.64709	-1706.21375	-796.08466	1198.27087	-1763.5376	-707.52386	1106.15784	-1806.625	-581.21265	1051.35999	-1809.53064	-622.82147	1022.38788	-1834.52087	-568.76501	996.34216	-1859.81006	-864.59668	1465.58008	-1222.48828	-927.08496	1287.12305	-1137.83459	-936.98114	1139.59119	-1114.93347	-919.1189	1017.61987	-1109.51001	-889.69354	888.83484	-1149.06091	-927.94171	887.71997	-1104.63806	-900.92126	819.69232	-1119.05872	-816.90503	964.81219	-1559.55884	-771.74091	947.40277	-1309.30225	-1004.30957	1020.77936	-1440.35559	-990.08557	1015.01813	-1328.18579	-964.16827	670.34888	-1594.62732	-1043.08484	481.6785	-1557.07715	-1150.77869	318.16119	-1546.44043	-1202.00439	98.0073	-1510.49512	-1235.38208	77.46915	-1454.85522	-1057.57886	37.38552	-1544.3075	-783.5816	647.64575	-1240.94812	-702.90472	463.35803	-1309.32275	-658.72107	283.1586	-1317.99109	-579.73993	107.24442	-1365.58521	-576.13873	50.59296	-1430.98022	-421.82468	122.46078	-1336.51611	-833.98248	1782.89026	-1364.14526	-2846.0542	1034.15918	3356.98853
19	0.18	-714.51331	1711.21399	-1447.14368	-734.42969	1684.81201	-1306.59998	-848.80115	1649.76843	-1475.73364	-881.02014	1623.73364	-1338.2699	-925.2135	1506.1156	-1407.92676	-984.21112	1230.33887	-1395.63037	-788.67279	1431.84814	-1421.08069	-742.44336	1259.17236	-1419.20728	-988.78113	1329.50623	-1346.55212	-860.86328	1484.69067	-1583.88293	-832.59363	1316.55444	-1707.46179	-780.88092	1197.55212	-1765.65784	-689.79456	1107.86365	-1808.6167	-562.18134	1057.23035	-1811.86536	-602.66058	1026.60083	-1836.22144	-547.98749	1002.65735	-1862.04651	-851.99512	1463.63159	-1223.34448	-916.08667	1285.63977	-1139.03796	-927.71271	1138.3783	-1116.24133	-910.841	1016.146	-1110.14587	-881.92651	887.00684	-1148.896	-921.71649	886.52606	-1105.39355	-894.98645	818.29462	-1118.8877	-803.93848	962.97668	-1561.07434	-758.06152	945.15796	-1311.1709	-991.07019	1018.84418	-1441.21558	-976.38104	1013.03284	-1329.0177	-954.2027	669.82166	-1596.18884	-1034.33508	481.80746	-1558.72522	-1144.94434	320.33319	-1547.77527	-1200.58777	101.271	-1511.56152	-1234.39307	81.8134	-1455.93213	-1057.51099	37.31057	-1544.60083	-770.96442	645.71948	-1243.72595	-687.8678	462.55951	-1310.92114	-642.14575	282.63376	-1319.18445	-563.95428	106.30428	-1366.96289	-561.68445	49.11572	-1431.82959	-405.45416	122.52821	-1341.69238	-820.78998	1780.9552	-1365.49194	-2845.90796	1034.14709	3357.04956
